<?xml version="1.0" encoding="UTF-8" standalone="no"?>
<!-- Created with Inkscape (http://www.inkscape.org/) -->

<svg
   xmlns:dc="http://purl.org/dc/elements/1.1/"
   xmlns:cc="http://creativecommons.org/ns#"
   xmlns:rdf="http://www.w3.org/1999/02/22-rdf-syntax-ns#"
   xmlns:svg="http://www.w3.org/2000/svg"
   xmlns="http://www.w3.org/2000/svg"
   xmlns:sodipodi="http://sodipodi.sourceforge.net/DTD/sodipodi-0.dtd"
   xmlns:inkscape="http://www.inkscape.org/namespaces/inkscape"
   version="1.1"
   id="svg3680"
   width="512"
   height="512"
   viewBox="0 0 512 512"
   sodipodi:docname="ds_law.svg"
   inkscape:version="0.92.1 r15371">
  <metadata
     id="metadata3686">
    <rdf:RDF>
      <cc:Work
         rdf:about="">
        <dc:format>image/svg+xml</dc:format>
        <dc:type
           rdf:resource="http://purl.org/dc/dcmitype/StillImage" />
        <dc:title></dc:title>
      </cc:Work>
    </rdf:RDF>
  </metadata>
  <defs
     id="defs3684" />
  <sodipodi:namedview
     pagecolor="#ffffff"
     bordercolor="#666666"
     borderopacity="1"
     objecttolerance="10"
     gridtolerance="10"
     guidetolerance="10"
     inkscape:pageopacity="0"
     inkscape:pageshadow="2"
     inkscape:window-width="1366"
     inkscape:window-height="705"
     id="namedview3682"
     showgrid="false"
     inkscape:zoom="1.0507812"
     inkscape:cx="175.11792"
     inkscape:cy="268.6432"
     inkscape:window-x="-8"
     inkscape:window-y="-8"
     inkscape:window-maximized="1"
     inkscape:current-layer="layer3" />
  <rect
     style="fill:#e3dedb;fill-opacity:1;stroke-width:2.44136071"
     id="rect3998"
     width="97.049667"
     height="97.33831"
     x="-22.740379"
     y="167.43364"
     transform="matrix(0.70463392,-0.70957103,0.696037,0.71800591,0,0)"
     inkscape:export-filename="C:\Users\Otavio\Documents\Blog\data_science_and_law\assets\img\js-1.png"
     inkscape:export-xdpi="96"
     inkscape:export-ydpi="96" />
  <g
     inkscape:groupmode="layer"
     id="layer2"
     inkscape:label="Layer 2" />
  <g
     inkscape:groupmode="layer"
     id="layer4"
     inkscape:label="Layer 4">
    <ellipse
       style="fill:#ffffff;fill-opacity:1;stroke-width:0.31273255"
       id="path3996-2"
       cx="193.56432"
       cy="275.09247"
       rx="9.8850098"
       ry="10.216329"
       inkscape:export-filename="C:\Users\Otavio\Documents\Blog\data_science_and_law\assets\img\js-1.png"
       inkscape:export-xdpi="96"
       inkscape:export-ydpi="96" />
    <ellipse
       style="fill:#ffffff;fill-opacity:1;stroke-width:0.26706475"
       id="path3996-2-0-5"
       cx="174.13254"
       cy="265.86276"
       rx="8.5717583"
       ry="8.5918961"
       transform="matrix(0.99985102,0.01726099,0,1,0,0)"
       inkscape:export-filename="C:\Users\Otavio\Documents\Blog\data_science_and_law\assets\img\js-1.png"
       inkscape:export-xdpi="96"
       inkscape:export-ydpi="96" />
  </g>
  <g
     inkscape:groupmode="layer"
     id="layer1"
     inkscape:label="Layer 1"
     style="display:inline">
    <path
       style="fill:#c83737;fill-opacity:1;stroke-width:0.14493741"
       id="path3868"
       d="m 127.84713,120.27418 c 0.0491,1.45536 0.52669,2.897 0.9576,4.32828 0.28464,0.88839 0.57388,1.77641 0.87971,2.66255 0.0681,0.19745 0.15951,0.66816 0.39394,0.87279 -0.86509,0.11423 -1.72353,0.43927 -2.59528,0.34268 -0.38857,-0.043 -0.157,-0.44009 -0.2513,-0.65807 -0.55676,-1.287 -1.34948,-2.53421 -2.13653,-3.7802 -0.62569,-0.98836 -1.37918,-1.94844 -2.14768,-2.90315 -0.18071,-0.24357 -0.40459,-0.50228 -0.29971,-0.77062 0.85341,-0.24204 1.68684,-0.50817 2.56022,-0.72612 0.29735,-0.0742 1.06051,0.31497 1.19627,0.38353 0.38225,0.19306 1.03179,0.56229 1.38213,0.75832 0.78373,0.4477 1.5137,0.91789 2.10113,1.45558 0.63583,0.58201 1.12424,1.2057 1.60388,1.83179 0.56757,0.91569 0.98623,1.87609 1.1117,2.84721 0.0919,0.71161 0.0283,0.96118 -0.0393,1.67171 -0.19542,0.87618 -0.43408,1.79949 -1.31816,2.55219 -0.39501,0.33633 -0.61464,0.41805 -1.12335,0.67764 -1.57824,0.54131 -3.52439,1.19661 -5.47377,1.07384 -0.19799,-0.0125 -0.39012,-0.0459 -0.58519,-0.0688 -0.1846,-0.0629 -0.38617,-0.11211 -0.55379,-0.18881 -0.92274,-0.42222 -1.41553,-1.10452 -1.81645,-1.71506 -0.0378,-0.0952 -0.10017,-0.18833 -0.1134,-0.28563 -0.0516,-0.3795 0.31146,-0.73742 0.83161,-0.96329 0.13435,-0.0583 0.29019,-0.0988 0.43528,-0.14815 1.75053,-0.53036 2.31791,-0.75613 3.85695,-0.69306 0,0 -2.26885,0.78009 -2.26885,0.78009 v 0 c -1.30183,-0.0127 -1.80241,0.26874 0.94999,-0.50622 -0.15038,0.0375 -0.31034,0.0647 -0.45113,0.11272 -0.48874,0.16674 -0.93312,0.47994 -0.93149,0.81786 4.4e-4,0.0913 0.0521,0.18029 0.0781,0.27042 0.34654,0.58466 0.79958,1.24823 1.72954,1.61885 0.15731,0.0627 0.34475,0.0966 0.51712,0.14494 0.64165,0.0543 1.11869,0.0675 1.76479,-0.006 0.21344,-0.0242 0.81442,-0.16126 0.63133,-0.0945 -0.33243,0.12117 -2.83756,0.80721 -1.06779,0.29218 0.53247,-0.2406 0.76783,-0.31741 1.19118,-0.63844 0.95279,-0.7225 1.24266,-1.64009 1.45664,-2.5107 0.0288,-0.27466 0.0815,-0.54884 0.0865,-0.82397 0.0227,-1.23337 -0.43492,-2.46609 -1.16903,-3.62166 -0.46739,-0.62026 -0.9457,-1.23386 -1.58719,-1.8048 -0.5906,-0.52565 -1.32323,-0.98603 -2.10136,-1.42366 -0.57694,-0.3045 -1.2463,-0.71979 -1.9702,-0.91767 -0.11807,-0.0323 -0.25075,-0.0492 -0.38156,-0.054 -0.0772,-0.003 -0.29322,0.0528 -0.22509,0.032 0.74215,-0.22624 1.5019,-0.43342 2.25286,-0.65012 -0.0299,0.0119 -0.0724,0.0174 -0.0897,0.0356 -0.12636,0.1334 0.1917,0.49527 0.24086,0.62379 0.66003,0.98638 1.30253,1.97678 1.90597,2.97481 0.76381,1.2512 1.50724,2.50584 2.25154,3.76075 0.12392,0.20894 0.61358,0.44732 0.38272,0.6247 -0.55318,0.42505 -1.55495,0.58226 -2.33242,0.8734 0.0139,-0.0186 0.0433,-0.0358 0.0416,-0.056 -0.009,-0.1066 -0.0486,-0.21165 -0.0728,-0.31747 -0.0415,-0.18166 -0.0809,-0.36347 -0.12437,-0.54498 -0.21573,-0.90154 -0.46068,-1.8008 -0.73234,-2.69748 -0.44829,-1.42051 -0.96829,-2.83482 -1.34532,-4.26185 0,0 2.51344,-0.59017 2.51344,-0.59017 z"
       inkscape:connector-curvature="0"
       inkscape:export-filename="C:\Users\Otavio\Documents\Blog\data_science_and_law\assets\img\js-1.png"
       inkscape:export-xdpi="96"
       inkscape:export-ydpi="96" />
    <path
       style="fill:#c83737;fill-opacity:1;stroke-width:0.14493741"
       id="path3874"
       d="m 138.06361,124.80554 c -0.79144,1.7609 -1.306,3.55851 -1.79482,5.35309 -0.0719,0.25872 -0.14312,0.51749 -0.21558,0.77616 -0.0533,0.1903 -0.10568,0.3807 -0.1617,0.57076 -0.0345,0.11721 -0.0693,0.23445 -0.11004,0.35103 -0.0171,0.0491 0.0171,0.12523 -0.0635,0.1458 -2.74022,0.70019 -2.51281,1.00917 -2.59918,0.18036 -0.008,-1.15884 -0.005,-2.31768 -0.0183,-3.4765 0.022,-0.66028 -0.0731,-1.32157 -0.0376,-1.98159 0.038,-0.21794 0.0784,-0.43666 0.13993,-0.65296 0.31945,-0.58468 1.98444,-0.67334 2.70915,-0.86085 0.0338,-0.009 0.36163,-0.025 0.38259,-0.022 0.11495,0.0166 0.21562,0.0561 0.32343,0.0842 1.01296,0.34463 1.99896,0.72158 2.92441,1.13854 0.14273,0.0701 0.48277,0.22799 0.60012,0.31928 0.43832,0.34093 0.61444,0.84556 0.82511,1.24362 0.22381,0.46565 0.45687,0.92916 0.75632,1.38119 0.15728,0.27397 0.40554,0.52303 0.65669,0.7715 0,0 -2.41966,0.65129 -2.41966,0.65129 v 0 c -0.2439,-0.2579 -0.48429,-0.5166 -0.6662,-0.79122 -0.32594,-0.4537 -0.48491,-0.93456 -0.71126,-1.406 -0.20778,-0.38861 -0.37285,-0.83662 -0.81987,-1.16573 -0.11553,-0.0851 -0.43295,-0.24133 -0.5656,-0.30955 -0.8875,-0.41906 -1.84564,-0.81395 -2.90688,-1.07712 -0.27297,-0.0194 -0.24368,-0.0357 -0.47777,0.005 -0.0533,0.009 -0.20505,0.0494 -0.15496,0.0356 0.75821,-0.20961 1.51976,-0.41533 2.27963,-0.623 -0.16444,0.0257 -0.099,0.001 -0.20211,0.0693 -0.11746,0.20324 -0.0884,0.43036 -0.18821,0.63754 -0.13401,0.6628 -0.0344,1.33715 -0.0999,2.00227 -0.0184,1.14757 -0.0468,2.29791 0.0965,3.44331 0.17443,0.74871 0.22546,0.3259 -2.35284,0.9293 -0.088,0.0206 0.11861,-0.0864 0.15325,-0.13673 0.38075,-0.55292 0.43746,-1.16577 0.70003,-1.73476 0.56295,-1.75856 1.12141,-3.51809 1.50322,-5.29291 0,0 2.51559,-0.55795 2.51559,-0.55795 z"
       inkscape:connector-curvature="0"
       inkscape:export-filename="C:\Users\Otavio\Documents\Blog\data_science_and_law\assets\img\js-1.png"
       inkscape:export-xdpi="96"
       inkscape:export-ydpi="96" />
    <path
       style="fill:#c83737;fill-opacity:1;stroke-width:0.14493741"
       id="path3876"
       d="m 136.53586,128.57071 c 1.03142,-0.11452 2.07628,-0.16666 3.12296,-0.21284 0.18221,-0.007 0.36441,-0.014 0.54662,-0.021 0,0 -2.2378,0.78863 -2.2378,0.78863 v 0 c -0.17745,0.006 -0.35489,0.0123 -0.53234,0.0184 -1.06741,0.0476 -2.13155,0.11559 -3.17503,0.25666 0,0 2.27559,-0.82981 2.27559,-0.82981 z"
       inkscape:connector-curvature="0"
       inkscape:export-filename="C:\Users\Otavio\Documents\Blog\data_science_and_law\assets\img\js-1.png"
       inkscape:export-xdpi="96"
       inkscape:export-ydpi="96" />
    <path
       style="fill:#c83737;fill-opacity:1;stroke-width:0.14493741"
       id="path3882"
       d="m 143.16722,125.07937 c 1.73246,0.0179 3.46284,0.0707 5.19308,0.12155 1.19979,0.0335 0.62558,0.018 1.7226,0.0467 0,0 -2.21334,0.75891 -2.21334,0.75891 v 0 c -1.06071,-0.0422 -0.50402,-0.0207 -1.67013,-0.0642 -1.77656,-0.0573 -3.55668,-0.10093 -5.33621,-0.0627 0,0 2.304,-0.80036 2.304,-0.80036 z"
       inkscape:connector-curvature="0"
       inkscape:export-filename="C:\Users\Otavio\Documents\Blog\data_science_and_law\assets\img\js-1.png"
       inkscape:export-xdpi="96"
       inkscape:export-ydpi="96" />
    <path
       style="fill:#c83737;fill-opacity:1;stroke-width:0.14493741"
       id="path3884"
       d="m 147.26642,125.57055 c -0.0778,0.74246 -0.0651,1.485 -0.009,2.22763 0.0604,0.97677 0.20962,1.95089 0.36112,2.9242 0,0 -2.37138,0.56768 -2.37138,0.56768 v 0 c -0.0863,-0.97847 -0.21341,-1.95523 -0.3366,-2.93239 -0.0845,-0.73189 -0.10953,-1.46418 -0.15737,-2.19695 0,0 2.51344,-0.59017 2.51344,-0.59017 z"
       inkscape:connector-curvature="0"
       inkscape:export-filename="C:\Users\Otavio\Documents\Blog\data_science_and_law\assets\img\js-1.png"
       inkscape:export-xdpi="96"
       inkscape:export-ydpi="96" />
    <path
       style="fill:#c83737;fill-opacity:1;stroke-width:0.14493741"
       id="path3886"
       d="m 153.98774,125.32094 c -0.80327,1.17723 -1.08676,2.44332 -1.45852,3.68094 -0.26301,0.78956 -0.38726,1.59853 -0.73791,2.37869 -0.85642,0.15123 -1.67976,0.38808 -2.56928,0.45368 -0.15419,0.0114 -0.002,-0.17631 0.003,-0.26441 0.0384,-0.70288 0.21969,-1.40225 0.37563,-2.09895 0.20697,-0.91666 0.50491,-1.82625 0.91675,-2.72035 0.25813,-0.49827 0.47628,-1.01193 0.89314,-1.47723 0.68566,-0.50506 0.35705,-0.29639 2.7924,-0.67485 0.11431,-0.0178 0.18868,0.0814 0.28043,0.12394 0.11888,0.0551 0.24353,0.10699 0.35134,0.16901 0.15602,0.0898 0.3047,0.18423 0.438,0.28508 0.18338,0.13873 0.34013,0.28817 0.5102,0.43226 0.95103,0.92221 1.75241,1.89024 2.31826,2.90924 0.23158,0.477 0.33586,0.96833 0.42986,1.45872 0,0 -2.42189,0.5835 -2.42189,0.5835 v 0 c -0.0646,-0.48422 -0.15167,-0.9687 -0.37662,-1.43912 -0.52127,-1.01194 -1.2258,-1.98897 -2.24849,-2.87513 -0.42739,-0.31668 -0.50504,-0.4132 -0.9984,-0.65581 -0.11339,-0.0558 -0.23811,-0.10405 -0.3649,-0.14961 -0.0816,-0.0293 -0.34017,-0.0452 -0.25845,-0.0744 1.02665,-0.36701 3.14197,-0.83961 2.08094,-0.60087 -0.50633,0.43475 -0.70644,0.9612 -0.97531,1.45267 -0.44679,0.89376 -0.82979,1.79927 -1.02827,2.72283 -0.12022,0.5614 -0.24175,1.12285 -0.26744,1.68895 -0.005,0.1203 0.001,0.24071 0.007,0.36102 0.004,0.0745 0.12887,0.18297 0.0184,0.22329 -0.7699,0.2809 -1.65096,0.44904 -2.47644,0.67357 0.0346,-0.0145 0.0828,-0.0222 0.10374,-0.0435 0.0977,-0.0992 0.25289,-0.44816 0.2813,-0.512 0.2674,-0.60095 0.47037,-1.21055 0.64952,-1.8217 0.30346,-1.0013 0.54408,-2.01228 0.90551,-3.00765 0.0834,-0.22975 0.18533,-0.42163 0.2961,-0.64096 0,0 2.53068,-0.54083 2.53068,-0.54083 z"
       inkscape:connector-curvature="0"
       inkscape:export-filename="C:\Users\Otavio\Documents\Blog\data_science_and_law\assets\img\js-1.png"
       inkscape:export-xdpi="96"
       inkscape:export-ydpi="96" />
    <path
       style="fill:#c83737;fill-opacity:1;stroke-width:0.14493741"
       id="path3888"
       d="m 154.45214,129.66661 c -0.61525,0.13556 -1.2374,0.26242 -1.87678,0.35638 -0.59518,0.085 -1.20906,0.10275 -1.81969,0.1138 -0.29851,0.003 -0.59403,0.0145 -0.88839,-0.0157 0,0 2.32749,-0.7866 2.32749,-0.7866 v 0 c 0.28364,0.009 0.56754,0.005 0.85141,-4e-5 0.59637,-0.0145 1.19326,-0.0443 1.76981,-0.1378 0.64668,-0.10817 1.27753,-0.24169 1.90761,-0.37724 0,0 -2.27146,0.84721 -2.27146,0.84721 z"
       inkscape:connector-curvature="0"
       inkscape:export-filename="C:\Users\Otavio\Documents\Blog\data_science_and_law\assets\img\js-1.png"
       inkscape:export-xdpi="96"
       inkscape:export-ydpi="96" />
    <path
       style="fill:#c83737;fill-opacity:1;stroke-width:0.14493741"
       id="path3890"
       d="m 174.75195,120.97808 c -0.95374,-0.1374 -1.91622,-0.25283 -2.88571,-0.34796 -1.39458,-0.12573 -2.79644,-0.15594 -4.19735,-0.0607 -0.52549,0.046 -1.04496,0.11657 -1.53694,0.23261 -0.12554,0.0296 -0.4925,0.1308 -0.36847,0.0992 2.16806,-0.5521 2.67404,-0.8305 1.86893,-0.42412 -0.0593,0.0645 -0.13378,0.12526 -0.17802,0.19356 -0.40251,0.62139 -0.18359,1.32034 0.0326,1.9455 0.34878,0.6827 0.89407,1.34594 1.93777,1.77489 0.60546,0.24884 0.93505,0.28691 1.63096,0.43318 1.22297,0.17231 2.48431,0.15242 3.73323,0.15336 1.12359,5.8e-4 0.89352,0.002 2.02157,0.0209 0.89526,0.0256 1.79258,0.0608 2.67667,0.14886 0.38795,0.0386 0.83992,0.081 1.17847,0.2111 0.15941,0.0613 0.27515,0.15278 0.41272,0.22917 0.42078,0.38341 0.76197,0.85545 0.46656,1.31021 -0.2139,0.32928 -0.49673,0.43488 -0.92643,0.68373 -0.25404,0.10895 -0.49586,0.22771 -0.76211,0.32685 -0.28412,0.10578 -0.57851,0.20397 -0.88558,0.28663 -1.8415,0.49569 -2.66544,0.81532 -4.38455,0.97012 -1.05306,0.0948 -1.5111,0.0716 -2.57868,0.0732 -2.0206,-0.0646 -4.04212,-0.16653 -6.0383,-0.35906 -0.43645,-0.0309 -0.85639,-0.10253 -1.27551,-0.1744 0,0 2.32665,-0.7541 2.32665,-0.7541 v 0 c 0.39281,0.0724 0.78774,0.14136 1.19706,0.17832 1.94539,0.20869 3.92029,0.32957 5.89834,0.37489 1.08067,-0.0133 1.50939,0.008 2.57176,-0.10865 0.99982,-0.10937 2.25009,-0.43573 -0.15078,0.20552 -0.57665,0.15401 2.2004,-0.61783 1.62701,-0.56967 0.38032,-0.19699 0.71175,-0.32417 0.93496,-0.59267 0.33259,-0.40008 0.0273,-0.82836 -0.36571,-1.16813 -0.12175,-0.0615 -0.22642,-0.13598 -0.36526,-0.18447 -0.30316,-0.10587 -0.77113,-0.15635 -1.1055,-0.19135 -0.8636,-0.0904 -1.74118,-0.12739 -2.61743,-0.1484 -1.9395,-0.0268 -3.91566,0.0666 -5.81255,-0.21197 -0.73114,-0.16568 -1.05236,-0.20485 -1.68209,-0.47953 -1.05771,-0.46136 -1.61403,-1.15354 -1.99678,-1.85761 -0.0725,-0.17769 -0.1601,-0.35362 -0.21759,-0.53308 -0.18181,-0.56755 -0.17708,-1.15985 0.15269,-1.70924 0.78603,-0.6129 0.13174,-0.15595 2.88667,-0.89487 0.59758,-0.16028 1.26042,-0.22544 1.90871,-0.27821 1.41516,-0.0735 2.82813,-0.0225 4.23328,0.0962 0.99533,0.0972 1.98043,0.2246 2.9772,0.31635 0,0 -2.34246,0.78385 -2.34246,0.78385 z"
       inkscape:connector-curvature="0"
       inkscape:export-filename="C:\Users\Otavio\Documents\Blog\data_science_and_law\assets\img\js-1.png"
       inkscape:export-xdpi="96"
       inkscape:export-ydpi="96" />
    <path
       style="fill:#c83737;fill-opacity:1;stroke-width:0.14493741"
       id="path3898"
       d="m 187.40424,124.32468 c -0.59404,-0.005 -1.18817,-0.006 -1.78225,-0.01 -0.83408,0.009 -1.67537,-0.038 -2.49789,0.0554 -1.22276,0.31577 1.40885,-0.36484 1.85848,-0.45672 0.11636,-0.0238 -0.18302,0.0946 -0.2663,0.14647 -0.27504,0.17118 -0.48903,0.37029 -0.70913,0.56406 -0.46596,0.39455 -0.6324,0.85597 -0.75133,1.31763 -0.079,0.3831 -0.1384,0.76933 -0.0391,1.15228 0.13039,0.34253 0.36096,0.67119 0.78643,0.92896 0.45562,0.20647 1.08107,0.16575 1.62779,0.14575 0.29685,-0.0272 0.36799,-0.0247 0.64411,-0.084 0.0905,-0.0194 0.35169,-0.0917 0.26369,-0.0688 -3.69869,0.95949 -2.48518,0.70637 -1.65634,0.36825 1.18307,-0.55483 2.601,-0.90233 4.0406,-1.20235 0.0926,-0.0157 0.18525,-0.0313 0.27788,-0.0469 0,0 -2.24685,0.83676 -2.24685,0.83676 v 0 c -0.0883,0.0178 -0.17658,0.0355 -0.26488,0.0533 -0.98588,0.23681 -0.44501,0.10932 1.82701,-0.49441 0.0937,-0.0249 -0.18983,0.0473 -0.28,0.0762 -0.17186,0.055 -0.38252,0.14551 -0.5371,0.21342 -0.0861,0.0378 -0.17001,0.0772 -0.25502,0.11584 -1.19051,0.51481 -2.58641,0.94636 -4.08753,1.03063 -0.62401,0.008 -1.29718,0.0135 -1.76134,-0.2598 -0.42307,-0.29261 -0.68475,-0.64067 -0.84115,-1.00757 -0.1278,-0.3984 -0.0426,-0.80097 0.0322,-1.20123 0.12179,-0.47431 0.24307,-0.96463 0.70701,-1.37662 1.02252,-0.91019 1.46601,-1.24131 3.89208,-1.56444 0.83029,-0.0548 1.6672,-0.0168 2.50126,-0.0286 0.61242,-0.003 1.22488,-0.005 1.83727,-0.01 0,0 -2.31963,0.80579 -2.31963,0.80579 z"
       inkscape:connector-curvature="0"
       inkscape:export-filename="C:\Users\Otavio\Documents\Blog\data_science_and_law\assets\img\js-1.png"
       inkscape:export-xdpi="96"
       inkscape:export-ydpi="96" />
    <path
       style="fill:#c83737;fill-opacity:1;stroke-width:0.14493741"
       id="path3900"
       d="m 192.32751,123.9477 c -0.0942,0.85149 0.0245,1.70426 0.11684,2.55405 0.0658,0.58159 0.15422,1.16232 0.20883,1.7443 0,0 -2.45508,0.58219 -2.45508,0.58219 v 0 c -0.0178,-0.58883 -0.0439,-1.17763 -0.10153,-1.76572 -0.0893,-0.84271 -0.22947,-1.68351 -0.2698,-2.52763 0,0 2.50074,-0.58719 2.50074,-0.58719 z"
       inkscape:connector-curvature="0"
       inkscape:export-filename="C:\Users\Otavio\Documents\Blog\data_science_and_law\assets\img\js-1.png"
       inkscape:export-xdpi="96"
       inkscape:export-ydpi="96" />
    <path
       style="fill:#c83737;fill-opacity:1;stroke-width:0.14493741"
       id="path3902"
       d="m 190.15069,122.5313 c -0.0847,-0.0621 -0.17421,-0.16044 -0.3234,-0.18241 -0.0249,-0.004 -0.0579,-0.002 -0.0758,0.008 -0.0237,0.0138 -0.0632,0.0626 -0.0322,0.0548 0.81101,-0.20405 1.60103,-0.43394 2.40154,-0.65091 -0.01,-0.0101 -0.0192,-0.0203 -0.0288,-0.0305 0,0 -2.50209,0.62799 -2.50209,0.62799 v 0 c -0.0185,-0.0306 -0.0369,-0.0611 -0.0554,-0.0917 1.79583,-0.51319 2.14955,-1.09269 3.07035,-0.40183 0,0 -2.45424,0.66646 -2.45424,0.66646 z"
       inkscape:connector-curvature="0"
       inkscape:export-filename="C:\Users\Otavio\Documents\Blog\data_science_and_law\assets\img\js-1.png"
       inkscape:export-xdpi="96"
       inkscape:export-ydpi="96" />
    <path
       style="fill:#c83737;fill-opacity:1;stroke-width:0.14493741"
       id="path3908"
       d="m 197.51803,124.76579 c 0.68588,1e-4 1.37771,0.0311 2.06053,-0.0128 1.11928,-0.30076 -1.3434,0.36225 -2.02229,0.50475 -0.0818,0.0172 0.10976,-0.0783 0.14493,-0.12357 0.15375,-0.1979 0.15852,-0.41495 0.1532,-0.62577 -0.0597,-0.35038 -0.38882,-0.62576 -0.90504,-0.81083 -0.50543,-0.12192 -1.05397,-0.10774 -1.58752,-0.0753 -0.0865,0.0119 -0.17637,0.0178 -0.25949,0.0359 -0.0818,0.0178 -0.31203,0.0901 -0.23126,0.0709 0.71814,-0.17125 1.39501,-0.40625 2.14438,-0.52709 0.16059,-0.0259 -0.20929,0.14817 -0.29606,0.22904 -0.22341,0.20824 -0.30715,0.36251 -0.46124,0.58934 -0.053,0.10229 -0.12529,0.20199 -0.15915,0.30688 -0.20721,0.64195 0.41075,1.26035 0.93295,1.79952 0.31978,0.34142 0.70581,0.65945 1.09965,0.97402 0.24474,0.19549 0.46624,0.37995 0.77012,0.54646 0.65111,0.20708 1.44415,0.26986 2.17549,0.19425 0,0 -2.27297,0.80965 -2.27297,0.80965 v 0 c -0.79366,0.0204 -1.62979,-0.0485 -2.28537,-0.3182 -0.74389,-0.46022 -1.23793,-1.05245 -1.81716,-1.57845 -0.56011,-0.55934 -1.23465,-1.2227 -1.05793,-1.89559 0.0285,-0.10867 0.10354,-0.21175 0.15532,-0.31761 0.19944,-0.32569 0.1701,-0.3073 0.42808,-0.61421 0.0749,-0.0891 0.0906,-0.21066 0.23724,-0.26387 0.90024,-0.32661 2.02141,-0.76108 3.17805,-0.84745 0.57829,-0.0178 1.17693,-0.008 1.68846,0.16471 0.54073,0.23752 0.90531,0.5526 0.98194,0.94544 0.0201,0.2344 0.007,0.45581 -0.0881,0.68594 -0.0252,0.061 -0.003,0.14712 -0.0976,0.17958 -2.03336,0.69836 -1.68806,0.64921 -2.82846,0.76678 -0.69844,0.0139 -1.39788,-0.003 -2.09645,0.0121 0,0 2.31572,-0.80442 2.31572,-0.80442 z"
       inkscape:connector-curvature="0"
       inkscape:export-filename="C:\Users\Otavio\Documents\Blog\data_science_and_law\assets\img\js-1.png"
       inkscape:export-xdpi="96"
       inkscape:export-ydpi="96" />
    <path
       style="fill:#c83737;fill-opacity:1;stroke-width:0.14493741"
       id="path3910"
       d="m 200.64295,123.40354 c 0.0987,-0.25337 0.2156,-0.49756 0.53029,-0.69176 0.86562,-0.21629 1.69908,-0.47989 2.59687,-0.64887 0.0947,-0.0178 0.14665,0.0771 0.21058,0.12046 0.32534,0.22075 0.52907,0.49352 0.70037,0.75994 0.4073,0.72308 0.66571,1.46989 0.80839,2.2237 0.12722,0.64982 0.0854,1.30793 0.21319,1.95732 0.65984,0.36475 0.34108,0.18247 -2.51477,0.54154 -0.12135,0.0153 -0.0104,-0.1408 -0.0138,-0.21124 -0.005,-0.11114 -0.008,-0.2223 -0.0123,-0.33346 -0.0206,-0.5713 -0.017,-0.28555 -0.007,-0.90165 0.0532,-0.88777 0.14043,-1.78337 0.64427,-2.62992 0.80732,-0.98949 1.73807,-0.97646 3.70464,-1.49585 0.69218,-0.0762 0.81892,-0.0821 1.18818,0.28366 0.41425,0.52602 0.38677,1.11536 0.42611,1.67989 0.0511,0.82334 -0.0241,1.64643 -0.13292,2.46722 -0.0563,0.39654 -0.0294,0.20727 -0.0805,0.5678 0,0 -2.46019,0.56142 -2.46019,0.56142 v 0 c 0.0771,-0.36557 0.0371,-0.17389 0.11962,-0.57506 0.14944,-0.81356 0.21348,-1.63031 0.13912,-2.44812 -0.036,-0.5351 -0.0337,-1.09724 -0.43256,-1.59342 -0.048,-0.04 -0.0856,-0.0849 -0.14414,-0.1202 -0.20884,-0.1261 -0.63624,-0.0106 -0.86787,0.0273 5.2365,-1.41205 2.25727,-0.68844 1.73479,-0.43104 -0.31111,0.15328 -0.53307,0.35077 -0.72711,0.55445 -0.19066,0.26694 -0.26724,0.3472 -0.38863,0.64018 -0.2646,0.63864 -0.31295,1.30105 -0.34765,1.95373 0.009,0.40218 0.0266,0.80079 0.10488,1.20089 0.0125,0.0638 0.14393,0.15639 0.0482,0.1907 -2.6673,0.95605 -2.78964,1.17369 -2.47458,0.66025 0.0733,-0.65544 -0.0199,-1.31528 -0.10354,-1.96869 -0.15395,-0.73787 -0.38036,-1.47634 -0.83727,-2.17564 -0.14077,-0.20075 -0.28832,-0.38996 -0.51688,-0.56477 -0.0489,-0.0374 -0.0975,-0.0764 -0.1624,-0.10482 -0.0324,-0.0142 -0.15476,-0.007 -0.11854,-0.0182 0.75029,-0.2241 1.52576,-0.42 2.28864,-0.63 -0.38889,0.13029 -0.5021,0.34403 -0.58584,0.58575 0,0 -2.52994,0.56647 -2.52994,0.56647 z"
       inkscape:connector-curvature="0"
       inkscape:export-filename="C:\Users\Otavio\Documents\Blog\data_science_and_law\assets\img\js-1.png"
       inkscape:export-xdpi="96"
       inkscape:export-ydpi="96" />
    <path
       style="fill:#c83737;fill-opacity:1;stroke-width:0.14493741"
       id="path3914"
       d="m 213.59056,122.95124 c -0.54809,-0.0485 -1.10324,-0.0642 -1.65694,-0.076 -0.0799,0.005 -0.16059,0.007 -0.23966,0.0147 -0.25906,0.0266 -0.50297,0.0926 -0.74276,0.15138 -0.10029,0.0246 -0.39854,0.10167 -0.2993,0.0758 0.68893,-0.17989 1.37894,-0.35846 2.06841,-0.53768 -0.57066,0.1756 -1.11676,0.36907 -1.58206,0.62702 -0.477,0.30137 -0.56884,0.70691 -0.64331,1.09405 -0.0756,0.5212 -0.10021,1.04435 0.002,1.56444 0.0994,0.31724 0.28657,0.63613 0.81076,0.79607 0.48707,0.0987 1.01869,0.0868 1.52917,0.0906 0.72383,0.003 1.44762,-0.001 2.17139,-0.006 0.26527,-0.002 0.28049,0.0118 0.52349,-0.039 0.0752,-0.0157 0.29025,-0.0773 0.21725,-0.0585 -2.28142,0.58677 -2.85462,0.87432 -2.0651,0.49778 0,0 2.55828,-0.48749 2.55828,-0.48749 v 0 c -0.61787,0.59556 -0.0932,0.14461 -2.74238,0.83347 -0.23928,0.0622 -0.52478,0.0454 -0.77807,0.049 -0.7243,-3.1e-4 -1.44855,0.002 -2.17284,0.002 -0.54972,-0.005 -1.12608,-0.003 -1.62005,-0.15895 -0.53943,-0.22496 -0.77482,-0.55969 -0.86599,-0.93048 -0.10002,-0.52747 -0.10074,-1.05912 -0.0498,-1.58866 0.0758,-0.40727 0.15108,-0.83806 0.56934,-1.18465 0.44788,-0.28474 0.98923,-0.49033 1.57324,-0.6772 0.90684,-0.24403 1.81163,-0.49051 2.72051,-0.73207 0.42783,-0.11371 0.88085,-0.20237 1.35918,-0.18764 0.56689,0.0185 1.13361,0.0426 1.69701,0.0835 0,0 -2.34247,0.78385 -2.34247,0.78385 z"
       inkscape:connector-curvature="0"
       inkscape:export-filename="C:\Users\Otavio\Documents\Blog\data_science_and_law\assets\img\js-1.png"
       inkscape:export-xdpi="96"
       inkscape:export-ydpi="96" />
    <path
       style="fill:#c83737;fill-opacity:1;stroke-width:0.14493741"
       id="path3916"
       d="m 218.4315,123.43704 c 0.532,0.009 1.32847,0.11834 1.83651,0.0566 0.0954,-0.0116 0.17883,-0.0444 0.26824,-0.0666 -3.60896,0.9129 -2.13436,0.83021 -1.94558,0.18646 0.0544,-0.18543 0.0158,-0.3691 -0.0352,-0.55232 -0.14796,-0.32944 -0.46649,-0.35347 -1.00107,-0.39328 -0.55669,-0.0267 -1.11598,-0.0178 -1.67391,-0.0149 -0.1752,10e-4 -0.30535,-0.006 -0.47382,0.0229 -0.0588,0.01 -0.22309,0.058 -0.167,0.0439 0.76165,-0.19157 1.50367,-0.41017 2.28366,-0.57634 0.0734,-0.0157 -0.0895,0.0739 -0.11868,0.11511 -0.0373,0.0527 -0.0526,0.10955 -0.079,0.16433 -0.18961,0.53779 -0.0327,1.07409 0.18987,1.59945 0.26965,0.58655 0.69779,1.13481 1.25281,1.65029 0.58181,0.45362 1.43046,0.77093 2.26703,1.05717 0.26561,0.0678 0.41448,0.14285 0.71255,0.0968 0.10018,-0.0155 0.36399,-0.11257 0.26828,-0.0897 -3.3181,0.79142 -2.40983,0.78741 -1.74508,0.29516 0.0413,-0.0425 0.0826,-0.0849 0.12395,-0.12739 0,0 2.53109,-0.51862 2.53109,-0.51862 v 0 c -0.0387,0.0494 -0.0773,0.0987 -0.11597,0.1481 -0.70511,0.65928 -1.26813,0.58263 -3.03191,1.0405 -0.36973,0.096 -0.76173,-0.036 -1.0692,-0.13477 -0.8543,-0.3128 -1.74731,-0.63901 -2.34458,-1.11506 -0.54697,-0.53423 -0.94177,-1.10772 -1.23394,-1.70298 -0.25039,-0.53942 -0.46384,-1.08752 -0.30396,-1.64695 0.002,-0.008 0.0866,-0.33486 0.12802,-0.34923 1.44474,-0.50086 1.92999,-0.77877 3.22072,-0.7713 0.56644,-0.002 1.13638,-0.005 1.6987,0.0385 0.63074,0.0768 0.98098,0.18839 1.14188,0.56402 0.0799,0.27336 0.11595,0.55047 -1.9e-4,0.82329 -0.0291,0.0683 -0.009,0.16303 -0.11422,0.20062 -0.83178,0.29851 -1.743,0.5191 -2.6145,0.77865 -0.72237,0.0678 -1.45841,-0.0185 -2.18444,-0.0359 0,0 2.32901,-0.78663 2.32901,-0.78663 z"
       inkscape:connector-curvature="0"
       inkscape:export-filename="C:\Users\Otavio\Documents\Blog\data_science_and_law\assets\img\js-1.png"
       inkscape:export-xdpi="96"
       inkscape:export-ydpi="96" />
    <path
       style="fill:#aa8800;fill-opacity:1;stroke-width:0.2016456"
       id="path3924"
       d="m 149.83732,147.69157 c -0.36528,2.95847 -0.92788,5.90583 -1.98492,8.7469 -0.27878,0.7493 -0.6187,1.48098 -0.92805,2.22146 -1.24292,2.44625 -2.47778,4.99966 -4.55898,7.02794 -1.09798,0.89984 -2.20727,1.15248 -3.78364,1.73279 -0.25509,0.0939 -0.48408,-0.0497 -0.65563,-0.18154 -0.0288,-0.0648 -0.0902,-0.12519 -0.0866,-0.19449 0.005,-0.0962 0.0119,-0.2268 0.11082,-0.27306 1.03179,-0.48275 2.10842,-0.89618 3.19798,-1.27504 0.28782,-0.10007 0.60707,-0.11572 0.9144,-0.15489 1.18045,-0.1504 2.19595,-0.19762 3.40145,-0.27926 3.60809,-0.1903 7.22005,-0.30638 10.82769,-0.50425 -0.6385,0.55592 1.92407,-0.45567 1.44162,-0.34619 -0.76248,0.17303 -1.46304,0.75457 -2.24201,0.64786 -0.36635,-0.0502 0.24777,-0.60012 0.31903,-0.91128 0.22194,-0.96899 0.25048,-2.02024 0.31732,-2.99824 0.0697,-1.62374 0.0708,-3.24901 0.0373,-4.87337 -0.021,-1.01685 -0.0809,-1.96752 5.8e-4,-2.98168 0.0609,-0.1536 0.0214,-0.37541 0.1828,-0.4608 0.95554,-0.50563 1.9545,-0.99839 3.04074,-1.24495 0.23458,-0.0533 0.3671,0.2748 0.5182,0.43711 0.91219,0.9799 1.40762,2.32113 1.95106,3.46046 1.0353,2.20328 2.17381,4.36873 3.37496,6.50904 0,0 -2.61568,1.03724 -2.61568,1.03724 v 0 c -1.0526,-2.19831 -2.09545,-4.40033 -3.21821,-6.57345 -0.49767,-0.92506 -0.89293,-1.76541 -1.54033,-2.61515 -0.17364,-0.22792 -0.37222,-0.44488 -0.6008,-0.63412 -0.11284,-0.0934 -0.53267,-0.11929 -0.40828,-0.20132 0.69202,-0.45634 1.49404,-0.79507 2.3135,-1.05503 0.17101,-0.0543 -0.17999,0.27117 -0.26999,0.40675 -0.0451,0.23668 -0.11072,0.47117 -0.13548,0.71004 -0.0495,0.47783 -0.0553,1.90722 -0.0594,2.30841 -0.0167,1.63029 -0.0187,3.26069 -0.0539,4.89081 -0.026,0.75688 -0.0565,2.20197 -0.15254,2.9892 -0.0401,0.32836 0.092,0.75188 -0.19069,0.97691 -0.87014,0.69272 -2.00735,1.09169 -3.0403,1.59527 -0.18494,0.0902 -0.3933,0.14788 -0.60272,0.18073 -0.26721,0.0419 -0.54238,0.0276 -0.81358,0.0414 -3.55787,0.1097 -7.11982,0.18114 -10.66898,0.43187 -1.35552,0.1247 -2.25929,0.17454 -3.55999,0.40473 -0.32857,0.0582 -1.24791,0.38827 -0.97128,0.22598 0.68334,-0.4009 1.49393,-0.61574 2.21946,-0.95824 0.0613,-0.0289 -0.14189,-0.005 -0.20984,0.01 -0.0143,0.003 -0.005,0.0247 -0.008,0.037 0.11114,0.0363 0.10952,0.0483 0.24741,0.0258 0.0746,-0.0122 0.28666,-0.0834 0.21868,-0.0545 -4.56361,1.94088 -2.41496,1.09812 -1.55215,0.49893 0.18667,-0.15935 0.38459,-0.30962 0.56,-0.47804 0.57356,-0.55074 0.97635,-1.05026 1.44755,-1.68104 1.16068,-1.55371 2.1512,-3.19413 2.97964,-4.89628 0.31594,-0.73679 0.66792,-1.463 0.94781,-2.21035 1.03123,-2.75365 1.56293,-5.63175 1.532,-8.52325 0,0 2.80969,-0.99452 2.80969,-0.99452 z"
       inkscape:connector-curvature="0"
       inkscape:export-filename="C:\Users\Otavio\Documents\Blog\data_science_and_law\assets\img\js-1.png"
       inkscape:export-xdpi="96"
       inkscape:export-ydpi="96" />
    <path
       style="fill:#aa8800;fill-opacity:1;stroke-width:0.2016456"
       id="path3926"
       d="m 157.3916,158.20325 c 1.11719,0.003 2.22905,0.0862 3.33873,0.18901 0,0 -2.56621,1.31082 -2.56621,1.31082 v 0 c -1.1276,-0.10876 -2.26127,-0.17554 -3.39655,-0.12572 0,0 2.62403,-1.37411 2.62403,-1.37411 z"
       inkscape:connector-curvature="0"
       inkscape:export-filename="C:\Users\Otavio\Documents\Blog\data_science_and_law\assets\img\js-1.png"
       inkscape:export-xdpi="96"
       inkscape:export-ydpi="96" />
    <path
       style="fill:#aa8800;fill-opacity:1;stroke-width:0.2016456"
       id="path3928"
       d="m 168.94773,153.0805 c -0.005,2.04976 0.84303,4.02369 1.66089,5.92288 0.54435,1.21962 1.15359,2.4284 1.97028,3.53484 0.10328,0.10318 0.41411,0.50003 0.61746,0.50293 0.0532,5.8e-4 0.17741,-0.0985 0.12811,-0.0814 -2.66378,0.9239 -3.06259,1.63497 -2.41388,0.67487 0.27685,-0.60801 0.34809,-1.25993 0.38828,-1.90569 0.0332,-0.44165 0.13309,-0.87368 0.2596,-1.30157 0.11858,-0.41574 0.14699,-0.84434 0.21441,-1.26737 0.13837,-0.50046 0.2964,-1.0033 0.49918,-1.48851 0.43546,-0.91668 2.45405,-1.98543 3.10737,-1.05207 0.23037,0.32914 0.34239,0.75503 0.49053,1.11165 0.42188,1.00441 0.97678,1.96428 1.61597,2.8798 0.47938,0.71416 0.99498,1.42143 1.6731,2.01095 0.11158,0.0666 0.36145,0.23347 0.50994,0.25615 0.2422,0.037 0.5017,-0.19438 0.41002,-0.16128 -2.51372,0.90746 -3.18194,1.59661 -2.40958,0.84565 0.3725,-0.60107 0.30201,-1.3387 0.33287,-1.99846 0.0513,-1.98648 0.0577,-3.97408 0.0535,-5.96103 -0.013,-1.25842 -0.0383,-2.51676 -0.0721,-3.77489 0,0 2.76065,-0.97733 2.76065,-0.97733 v 0 c -0.0319,1.27414 -0.0546,2.5485 -0.0641,3.82291 0.002,1.97462 0.0218,3.94948 0.0606,5.92381 0.0163,0.69733 0.10633,1.43927 -0.17766,2.10662 -0.61321,1.02155 -0.10851,0.27857 -3.03211,1.46701 -0.15631,0.0635 -0.39953,0.01 -0.54046,-0.0437 -0.21001,-0.0797 -0.36873,-0.21258 -0.54174,-0.33648 -0.64935,-0.63287 -1.17564,-1.35137 -1.68518,-2.06949 -0.62285,-0.93845 -1.11192,-1.93755 -1.6099,-2.92739 -0.0708,-0.14578 -0.30559,-0.63969 -0.40771,-0.81578 -0.031,-0.0536 -0.0616,-0.1094 -0.10939,-0.15306 -0.0118,-0.0108 -0.067,0.0125 -0.0514,0.006 2.64885,-1.08987 3.65776,-1.31923 2.56563,-1.06345 -0.26799,0.44863 -0.35575,0.95331 -0.54479,1.42786 -0.0695,0.42978 -0.0819,0.86343 -0.18461,1.28857 -0.1236,0.41817 -0.25757,0.82998 -0.30118,1.26241 -0.0494,0.6725 -0.12879,1.34691 -0.36017,1.9943 -0.0409,0.10936 -0.008,0.26804 -0.12284,0.32808 -0.97988,0.51367 -2.16056,1.70398 -3.14876,1.20208 -0.27594,-0.14014 -0.44991,-0.4054 -0.63098,-0.61853 -0.77289,-1.15095 -1.31598,-2.39857 -1.81115,-3.65315 -0.77875,-1.93027 -1.61852,-3.88394 -1.93236,-5.91589 0,0 2.83368,-1.00301 2.83368,-1.00301 z"
       inkscape:connector-curvature="0"
       inkscape:export-filename="C:\Users\Otavio\Documents\Blog\data_science_and_law\assets\img\js-1.png"
       inkscape:export-xdpi="96"
       inkscape:export-ydpi="96" />
    <path
       style="fill:#917c6f;fill-opacity:1;stroke-width:0.2016456"
       id="path3934"
       d="m 162.02647,139.93497 c 2.47909,0.0452 4.95563,0.15891 7.43109,0.27908 2.13675,0.1059 4.27446,0.19906 6.41415,0.24701 0.70746,0.0157 1.41515,0.0163 2.12277,0.0126 0,0 -2.59998,1.36033 -2.59998,1.36033 v 0 c -0.69084,-0.008 -1.38173,-0.021 -2.07187,-0.0499 -2.07983,-0.0954 -4.15614,-0.23825 -6.23523,-0.3442 -2.55401,-0.11757 -5.11377,-0.22628 -7.67168,-0.13774 0,0 2.61075,-1.36715 2.61075,-1.36715 z"
       inkscape:connector-curvature="0"
       inkscape:export-filename="C:\Users\Otavio\Documents\Blog\data_science_and_law\assets\img\js-1.png"
       inkscape:export-xdpi="96"
       inkscape:export-ydpi="96" />
    <path
       style="fill:#917c6f;fill-opacity:1;stroke-width:0.2016456"
       id="path3936"
       d="m 170.60127,134.52016 c -0.10334,1.8945 -0.10289,3.78989 -0.062,5.68563 0.0502,1.60122 0.15619,3.20062 0.27092,4.79924 0,0 -2.64709,0.9485 -2.64709,0.9485 v 0 c -0.0487,-1.61048 -0.11834,-3.22033 -0.2009,-4.82981 -0.0571,-1.86859 -0.10674,-3.73755 -0.18022,-5.60563 0,0 2.81929,-0.99793 2.81929,-0.99793 z"
       inkscape:connector-curvature="0"
       inkscape:export-filename="C:\Users\Otavio\Documents\Blog\data_science_and_law\assets\img\js-1.png"
       inkscape:export-xdpi="96"
       inkscape:export-ydpi="96" />
  </g>
  <g
     inkscape:groupmode="layer"
     id="layer5"
     inkscape:label="Layer 5" />
  <g
     inkscape:groupmode="layer"
     id="layer3"
     inkscape:label="Layer 3">
    <ellipse
       style="fill:#e3dedb;fill-opacity:1;stroke-width:0.62307203"
       id="path3996-2-0-5-2"
       cx="167.4021"
       cy="398.5502"
       rx="20.013336"
       ry="20.030085"
       transform="matrix(0.99985147,0.01723495,0,1,0,0)"
       inkscape:export-filename="C:\Users\Otavio\Documents\Blog\data_science_and_law\assets\img\js-1.png"
       inkscape:export-xdpi="96"
       inkscape:export-ydpi="96" />
    <rect
       style="fill:#e3dedb;fill-opacity:1;stroke-width:1.00787199"
       id="rect4159"
       width="150.29669"
       height="45.266293"
       x="101.85858"
       y="259.79514"
       inkscape:export-filename="C:\Users\Otavio\Documents\Blog\data_science_and_law\assets\img\js-1.png"
       inkscape:export-xdpi="96"
       inkscape:export-ydpi="96" />
    <rect
       style="fill:#e3dedb;fill-opacity:1;stroke-width:1.01587915"
       id="rect4159-0"
       width="143.63498"
       height="48.121311"
       x="319.15555"
       y="202.15613"
       inkscape:export-filename="C:\Users\Otavio\Documents\Blog\data_science_and_law\assets\img\js-1.png"
       inkscape:export-xdpi="96"
       inkscape:export-ydpi="96" />
    <path
       style="fill:#ff9955;fill-opacity:1;stroke-width:1.17758155"
       id="path4340"
       d="m 232.17052,138.09107 c 7.59744,-3.86125 15.15541,-8.18002 23.33428,-10.56777 8.31219,-2.42668 16.93677,-3.57892 25.44556,-4.9488 21.4093,-3.18179 42.98973,-4.84311 64.57793,-5.97015 8.87613,-0.0829 18.34564,-1.98217 26.7798,1.95557 4.49727,2.09969 5.28614,3.53251 8.67657,7.0336 0.96539,1.60599 2.11268,3.1081 2.89618,4.81797 3.62925,7.92034 4.45427,18.84465 4.22779,27.492 -0.0668,2.55155 -0.33637,5.093 -0.50454,7.63949 -0.72059,8.50289 -2.36255,16.8766 -4.27304,25.16329 0,0 -14.28232,5.70855 -14.28232,5.70855 v 0 c 2.29948,-8.21513 4.22786,-16.56292 4.93036,-25.11441 0.16973,-2.50104 0.43822,-4.99694 0.50918,-7.50312 0.24851,-8.77623 -0.49483,-18.51498 -4.2951,-26.52313 -0.75442,-1.58978 -1.83159,-2.99037 -2.74739,-4.48555 -3.2793,-3.30794 -3.87514,-4.50709 -8.22535,-6.42319 -8.1762,-3.6013 -17.35746,-1.76731 -25.917,-1.88907 -21.44822,0.82823 -42.90378,2.29113 -64.11257,5.87265 -8.91297,1.59978 -17.82572,3.07035 -26.4594,5.96296 -1.58059,0.52956 -6.11882,2.65513 -4.66258,1.8249 4.23963,-2.41712 16.17747,-7.82959 9.7157,-4.88827 0,0 -15.61406,4.84248 -15.61406,4.84248 z"
       inkscape:connector-curvature="0"
       inkscape:export-filename="C:\Users\Otavio\Documents\Blog\data_science_and_law\assets\img\js-1.png"
       inkscape:export-xdpi="96"
       inkscape:export-ydpi="96" />
    <path
       style="fill:#ff9955;fill-opacity:1;stroke-width:1.32990932"
       id="path4342"
       d="m 371.35221,184.23134 c 4.86926,2.82042 9.02635,6.221 12.88765,9.69381 1.64444,0.92785 2.31893,2.6236 4.18066,3.39778 0.24879,0.10343 1.1319,-0.007 0.86528,0.0734 -21.18547,6.32931 -24.77266,8.94351 -18.54517,4.75771 4.62834,-5.65526 8.39191,-11.6334 12.59042,-17.44777 0,0 20.36078,-5.04911 20.36078,-5.04911 v 0 c -4.31507,5.68592 -8.19546,11.48896 -11.77869,17.40857 -3.70222,6.25563 -0.79398,2.22601 -22.43188,7.83868 -0.44029,0.1142 -0.76807,-0.37954 -1.09995,-0.60925 -1.56898,-1.08593 -2.53843,-2.49712 -4.00832,-3.63892 -3.6395,-3.41462 -7.65401,-6.81858 -12.90963,-9.0994 0,0 19.88885,-7.32552 19.88885,-7.32552 z"
       inkscape:connector-curvature="0"
       inkscape:export-filename="C:\Users\Otavio\Documents\Blog\data_science_and_law\assets\img\js-1.png"
       inkscape:export-xdpi="96"
       inkscape:export-ydpi="96" />
    <path
       style="fill:#ff9955;fill-opacity:1"
       id="path4346"
       d="m 171.2016,197.16917 c 0.58923,10.89383 0.56866,21.81015 0.84664,32.71562 0.20905,7.11209 0.5217,14.22043 0.80364,21.32983 0,0 -12.61374,5.23442 -12.61374,5.23442 v 0 c 0.18677,-7.24577 0.31262,-14.49387 0.24004,-21.7424 -0.1905,-10.68812 -0.30563,-21.47366 -2.17329,-32.0275 0,0 12.89671,-5.50997 12.89671,-5.50997 z"
       inkscape:connector-curvature="0"
       inkscape:export-filename="C:\Users\Otavio\Documents\Blog\data_science_and_law\assets\img\js-1.png"
       inkscape:export-xdpi="96"
       inkscape:export-ydpi="96" />
    <path
       style="fill:#ff9955;fill-opacity:1"
       id="path4354"
       d="m 162.78014,240.197 c 2.71964,4.75472 5.70313,9.36085 8.6413,13.98495 1.33477,1.97306 2.3401,4.24007 3.94476,6.03112 0.22756,0.254 0.47732,0.51524 0.79116,0.64866 0.17101,0.0727 0.72275,-0.15098 0.55203,-0.0776 -4.05818,1.74389 -8.15445,3.39776 -12.23168,5.09664 0.30015,-0.38057 0.67956,-0.71028 0.90044,-1.14171 0.53037,-1.03594 1.33532,-3.90824 1.65738,-4.91879 0.9244,-2.90051 1.96163,-5.75654 3.01124,-8.61334 1.68037,-4.62119 3.17427,-9.29376 4.60898,-13.99435 0.3081,-1.15016 0.76967,-2.24253 1.26038,-3.323 0,0 13.19683,-4.78009 13.19683,-4.78009 v 0 c -0.54474,1.05362 -1.18005,2.06102 -1.48517,3.22198 -1.75344,4.6637 -3.1481,9.47244 -4.89822,14.14003 -1.86405,5.02843 -3.65908,10.08036 -4.76366,15.34187 -4.50806,1.97662 -8.91777,4.19475 -13.52419,5.92987 -0.29534,0.11125 -0.54931,-0.32323 -0.77515,-0.54368 -1.99782,-1.95019 -2.74523,-4.9783 -4.3697,-7.18263 -2.88881,-4.70513 -5.95865,-9.28538 -9.2453,-13.72239 0,0 12.72857,-6.09752 12.72857,-6.09752 z"
       inkscape:connector-curvature="0"
       inkscape:export-filename="C:\Users\Otavio\Documents\Blog\data_science_and_law\assets\img\js-1.png"
       inkscape:export-xdpi="96"
       inkscape:export-ydpi="96" />
    <path
       style="fill:#ff0000;fill-opacity:1;stroke-width:0.35957408"
       id="path4380"
       d="m 400.46164,149.41581 c -0.19313,3.03132 -0.21276,6.07041 -0.22841,9.10583 -0.002,1.7499 0.034,3.49953 0.0695,5.24908 0,0 -4.69805,1.68589 -4.69805,1.68589 v 0 c 0.0354,-1.76618 0.0717,-3.53242 0.0695,-5.29895 -0.0154,-2.98071 -0.032,-5.9655 -0.2284,-8.9419 0,0 5.0159,-1.79995 5.0159,-1.79995 z"
       inkscape:connector-curvature="0"
       inkscape:export-filename="C:\Users\Otavio\Documents\Blog\data_science_and_law\assets\img\js-1.png"
       inkscape:export-xdpi="96"
       inkscape:export-ydpi="96" />
    <path
       style="fill:#ff0000;fill-opacity:1;stroke-width:0.38296002"
       id="path4384"
       d="m 396.75563,150.40218 c 3.1101,0.12204 6.14112,-0.46663 9.15961,-0.85433 3.70318,-0.46391 7.42612,-0.86668 11.18738,-1.08088 1.23664,-0.0334 2.38938,-0.27835 3.54251,-0.53554 0,0 -5.59137,2.32634 -5.59137,2.32634 v 0 c -1.15121,0.22048 -2.31818,0.38247 -3.52607,0.41408 -3.65592,0.19194 -7.28433,0.54269 -10.87672,1.01406 -3.19449,0.43599 -6.38981,1.00234 -9.6855,0.96253 0,0 5.79016,-2.24626 5.79016,-2.24626 z"
       inkscape:connector-curvature="0"
       inkscape:export-filename="C:\Users\Otavio\Documents\Blog\data_science_and_law\assets\img\js-1.png"
       inkscape:export-xdpi="96"
       inkscape:export-ydpi="96" />
    <path
       style="fill:#ff0000;fill-opacity:1;stroke-width:0.4659445"
       id="path4386"
       d="m 401.03415,154.09201 c 1.62037,0.0626 3.24203,0.0591 4.86306,0.0498 1.06057,-0.10649 0.54618,-0.046 1.54346,-0.17861 0,0 -5.06011,3.70954 -5.06011,3.70954 v 0 c -0.98812,0.0856 -0.47701,0.0524 -1.5335,0.0946 -1.66728,-0.01 -3.33504,-0.01 -5.00173,0.0498 0,0 5.18882,-3.72519 5.18882,-3.72519 z"
       inkscape:connector-curvature="0"
       inkscape:export-filename="C:\Users\Otavio\Documents\Blog\data_science_and_law\assets\img\js-1.png"
       inkscape:export-xdpi="96"
       inkscape:export-ydpi="96" />
    <path
       style="fill:#ff0000;fill-opacity:1;stroke-width:0.31402305"
       id="path4388"
       d="m 420.64513,147.93143 c -1.10279,2.16248 -1.69839,4.43836 -2.34671,6.67705 -0.59379,2.28822 -1.03985,4.59109 -1.54588,6.88807 0,0 -4.79703,1.25003 -4.79703,1.25003 v 0 c 0.69259,-2.30915 1.26293,-4.63223 1.80558,-6.95877 0.56969,-2.20329 1.16298,-4.4059 1.76651,-6.60424 0,0 5.11753,-1.25214 5.11753,-1.25214 z"
       inkscape:connector-curvature="0"
       inkscape:export-filename="C:\Users\Otavio\Documents\Blog\data_science_and_law\assets\img\js-1.png"
       inkscape:export-xdpi="96"
       inkscape:export-ydpi="96" />
    <path
       style="fill:#ff0000;fill-opacity:1;stroke-width:0.31402305"
       id="path4390"
       d="m 421.90353,148.08717 c 1.44021,1.88134 2.51677,3.87398 3.70862,5.82765 0.93362,1.47724 1.97959,2.92609 2.71084,4.4547 0.16469,0.36416 0.26796,0.7378 0.39943,1.10735 0,0 -4.93606,1.43577 -4.93606,1.43577 v 0 c -0.1182,-0.36747 -0.19567,-0.73838 -0.32612,-1.10427 -0.62086,-1.54172 -1.54975,-3.02137 -2.41078,-4.50907 -1.15045,-1.94268 -2.27223,-3.93002 -4.04665,-5.66939 0,0 4.90072,-1.54274 4.90072,-1.54274 z"
       inkscape:connector-curvature="0"
       inkscape:export-filename="C:\Users\Otavio\Documents\Blog\data_science_and_law\assets\img\js-1.png"
       inkscape:export-xdpi="96"
       inkscape:export-ydpi="96" />
    <path
       style="fill:#ff0000;fill-opacity:1;stroke-width:0.31402305"
       id="path4392"
       d="m 420.29713,156.09948 c 0.90438,-0.16265 1.84171,-0.19356 2.69406,-0.46098 -1.50529,0.45608 -3.01057,0.91216 -4.51585,1.36824 0,0 5.19363,-1.02398 5.19363,-1.02398 v 0 c -1.72774,0.5449 -3.45546,1.08982 -5.1832,1.63472 -0.90158,0.18179 -1.85782,0.23229 -2.72978,0.48161 0,0 4.54114,-1.99961 4.54114,-1.99961 z"
       inkscape:connector-curvature="0"
       inkscape:export-filename="C:\Users\Otavio\Documents\Blog\data_science_and_law\assets\img\js-1.png"
       inkscape:export-xdpi="96"
       inkscape:export-ydpi="96" />
    <path
       style="fill:#ff0000;fill-opacity:1;stroke-width:0.31402305"
       id="path4394"
       d="m 433.56476,147.13828 c 0.042,2.01323 0.41861,4.01548 0.66717,6.02044 0.39294,2.44479 0.19711,4.93586 0.82627,7.36317 0.25047,0.60287 0.45695,0.69469 1.34519,0.57076 2.24172,-0.31276 -1.39748,0.17398 1.15612,-0.1645 1.51723,-0.23434 3.07175,-0.33973 4.61858,-0.44856 0,0 -4.48377,1.85882 -4.48377,1.85882 v 0 c -1.5624,0.10894 -3.1203,0.24685 -4.64785,0.49665 -1.45443,0.18037 -2.54153,0.23507 -2.82293,-0.94181 -0.33365,-2.47771 -0.0975,-4.98015 -0.55064,-7.45507 -0.29267,-1.98144 -0.67219,-3.95401 -1.15368,-5.91899 0,0 5.04554,-1.38091 5.04554,-1.38091 z"
       inkscape:connector-curvature="0"
       inkscape:export-filename="C:\Users\Otavio\Documents\Blog\data_science_and_law\assets\img\js-1.png"
       inkscape:export-xdpi="96"
       inkscape:export-ydpi="96" />
    <path
       style="fill:#ff0000;fill-opacity:1;stroke-width:0.31402305"
       id="path4398"
       d="m 450.55273,147.8974 c -1.93424,-0.19195 -3.90109,-0.211 -5.85351,-0.24827 -2.37736,-0.003 -4.77093,-0.13663 -7.13181,0.0919 -0.58181,0.0724 -0.80377,0.0769 -1.33073,0.22126 -0.16177,0.0443 -0.62651,0.20674 -0.46683,0.15923 8.15696,-2.42728 5.11443,-1.96747 3.971,-1.03176 -0.37966,0.41823 -0.28355,0.80687 0.13001,1.1891 1.21697,0.71586 2.58997,1.30583 3.88648,1.95663 1.29091,0.64383 2.69828,1.09114 4.16431,1.51792 1.17293,0.26168 2.39426,0.40922 3.55105,0.70499 1.38696,0.35447 2.28019,1.0773 2.97699,1.91306 0.76065,0.93738 0.65411,1.77896 0.42235,2.79806 -0.26756,1.05131 -0.75356,2.05078 -1.81264,2.86585 -2.2231,1.1858 -4.99851,2.04321 -7.8637,2.18735 -0.64588,-0.0347 -1.4637,0.15177 -2.05331,-0.0845 -0.13122,-0.0526 -0.23623,-0.12948 -0.35435,-0.19422 -0.48207,-0.35934 -0.70696,-0.83167 -1.14669,-1.21 -0.166,-0.14282 -0.46586,-0.31055 -0.6648,-0.42935 -0.12362,-0.0566 -0.24192,-0.11872 -0.37084,-0.16997 -0.1209,-0.0481 -0.25794,-0.0771 -0.37693,-0.12728 -0.5576,-0.23475 -0.90969,-0.60019 -1.27075,-0.95425 -0.31357,-0.36204 -0.17055,-0.17844 -0.4304,-0.55034 0,0 4.90434,-1.50714 4.90434,-1.50714 v 0 c 0.22609,0.3351 0.0992,0.16919 0.38273,0.49699 0.1366,0.13034 0.35561,0.34975 0.52187,0.46876 0.41466,0.29685 0.99287,0.44182 1.43726,0.71486 0.29888,0.19072 0.47748,0.28847 0.72494,0.51282 0.38172,0.34606 0.58385,0.7764 1.07344,1.06842 0.67245,0.21555 1.47703,0.0793 2.19932,0.0701 0.3783,-0.032 0.56236,-0.041 0.93832,-0.1006 0.17031,-0.0271 0.66209,-0.14662 0.50554,-0.0947 -1.4144,0.46898 -2.86453,0.88955 -4.28652,1.34839 -0.17449,0.0563 0.36883,-0.0829 0.54251,-0.14028 0.17142,-0.0566 0.32566,-0.13364 0.48849,-0.20045 0.28773,-0.18082 0.62444,-0.37388 0.84971,-0.59301 0.63313,-0.61589 0.91736,-1.3734 1.14917,-2.08843 0.19773,-0.89262 0.30581,-1.74183 -0.34704,-2.56998 -0.64804,-0.77488 -1.48372,-1.39686 -2.79024,-1.68973 -1.19215,-0.26074 -2.43962,-0.39968 -3.59989,-0.72009 -1.45014,-0.44976 -2.82374,-0.98733 -4.10707,-1.62485 -1.37053,-0.66985 -2.8714,-1.24303 -4.11841,-2.0103 -0.48455,-0.49333 -0.70833,-0.9935 -0.37465,-1.56454 0.99731,-1.40162 3.07478,-1.3388 5.62494,-2.139 0.56018,-0.17578 1.20681,-0.20046 1.80713,-0.26313 2.35592,-0.13438 4.72366,-0.0109 7.08467,-0.0145 2.02498,0.0324 4.04778,0.0969 6.07102,0.14952 0,0 -4.65648,1.88544 -4.65648,1.88544 z"
       inkscape:connector-curvature="0"
       inkscape:export-filename="C:\Users\Otavio\Documents\Blog\data_science_and_law\assets\img\js-1.png"
       inkscape:export-xdpi="96"
       inkscape:export-ydpi="96" />
    <path
       style="fill:#ff0000;fill-opacity:1;stroke-width:0.31402305"
       id="path4400"
       d="m 460.7707,148.10997 c -0.20194,1.97188 -0.20685,3.94905 -0.20281,5.92444 0.0164,1.72319 0.0711,3.44603 0.13843,5.16863 0.10658,0.30303 -0.15012,0.95716 0.16581,1.22131 0.10679,0.0893 0.56895,0.0979 0.63189,0.10354 1.78216,0.0525 3.5543,-0.13006 5.32226,-0.25415 0.75358,-0.0498 1.50891,-0.0855 2.2645,-0.11855 0,0 -4.54763,1.86757 -4.54763,1.86757 v 0 c -0.73579,0.0292 -1.47148,0.0604 -2.20494,0.10999 -1.82376,0.118 -3.67289,0.33116 -5.50263,0.16626 -0.19906,-0.054 -0.41727,-0.0841 -0.59719,-0.1621 -0.74981,-0.32514 -0.41063,-1.11372 -0.44885,-1.58819 0.0669,-1.74788 0.12175,-3.49596 0.13842,-5.24441 0.004,-1.93835 0.003,-3.87879 -0.2028,-5.81343 0,0 5.04554,-1.38091 5.04554,-1.38091 z"
       inkscape:connector-curvature="0"
       inkscape:export-filename="C:\Users\Otavio\Documents\Blog\data_science_and_law\assets\img\js-1.png"
       inkscape:export-xdpi="96"
       inkscape:export-ydpi="96" />
    <path
       style="fill:#ff0000;fill-opacity:1;stroke-width:0.31402305"
       id="path4402"
       d="m 461.95711,153.73858 c 1.55812,-0.16644 3.13076,-0.27092 4.70309,-0.35856 0,0 -4.52785,1.86734 -4.52785,1.86734 v 0 c -1.60003,0.085 -3.19767,0.19971 -4.77204,0.41231 0,0 4.5968,-1.92109 4.5968,-1.92109 z"
       inkscape:connector-curvature="0"
       inkscape:export-filename="C:\Users\Otavio\Documents\Blog\data_science_and_law\assets\img\js-1.png"
       inkscape:export-xdpi="96"
       inkscape:export-ydpi="96" />
    <path
       style="fill:#ff0000;fill-opacity:1;stroke-width:0.31402305"
       id="path4406"
       d="m 461.1637,147.4695 c 1.25348,0.0191 2.50722,0.0409 3.75897,-0.0111 1.46199,-0.0773 2.92077,-0.15053 4.37565,-0.2716 0.85768,-0.0691 0.44866,-0.0196 1.22889,-0.14185 0,0 -4.52771,1.91397 -4.52771,1.91397 v 0 c -0.78301,0.0803 -0.37566,0.0432 -1.22253,0.10918 -1.45152,0.11472 -2.91048,0.17253 -4.36851,0.2398 -1.29989,0.0369 -2.60069,0.0237 -3.90124,0.047 0,0 4.65648,-1.88543 4.65648,-1.88543 z"
       inkscape:connector-curvature="0"
       inkscape:export-filename="C:\Users\Otavio\Documents\Blog\data_science_and_law\assets\img\js-1.png"
       inkscape:export-xdpi="96"
       inkscape:export-ydpi="96" />
    <path
       style="fill:#008000;fill-opacity:1;stroke-width:0.37546352"
       id="path4418"
       d="m 181.13154,212.42322 c 5.1512,-0.0818 10.30577,-0.0722 15.45839,-0.0781 6.18328,-0.0126 12.36634,-0.0483 18.54888,-0.11052 0,0 -5.15025,2.02101 -5.15025,2.02101 v 0 c -6.07911,-0.049 -12.15898,-0.0603 -18.23821,-0.008 -5.42375,0.0626 -10.85547,0.10357 -16.26444,0.39001 0,0 5.64563,-2.21446 5.64563,-2.21446 z"
       inkscape:connector-curvature="0"
       inkscape:export-filename="C:\Users\Otavio\Documents\Blog\data_science_and_law\assets\img\js-1.png"
       inkscape:export-xdpi="96"
       inkscape:export-ydpi="96" />
    <path
       style="fill:#008000;fill-opacity:1;stroke-width:0.37546352"
       id="path4420"
       d="m 200.31431,212.33513 c 0.96005,4.08909 1.9147,8.17755 2.98553,12.25564 0.86163,2.94629 0.43899,1.54585 1.26095,4.20219 0,0 -5.47098,1.52033 -5.47098,1.52033 v 0 c -0.60926,-2.71401 -0.28268,-1.28622 -0.98367,-4.28297 -0.96574,-4.02297 -1.97299,-8.06672 -3.8211,-11.96931 0,0 6.02927,-1.72588 6.02927,-1.72588 z"
       inkscape:connector-curvature="0"
       inkscape:export-filename="C:\Users\Otavio\Documents\Blog\data_science_and_law\assets\img\js-1.png"
       inkscape:export-xdpi="96"
       inkscape:export-ydpi="96" />
    <path
       style="fill:#008000;fill-opacity:1;stroke-width:0.37546352"
       d="m 218.5689,212.60301 c 0.0622,2.5948 0.39541,5.18579 0.7447,7.7704 0.36396,2.60222 1.1069,5.17384 1.5567,7.76905 -0.01,1.68167 0.12508,0.81175 -6.19693,2.02534 -0.27797,0.0534 -0.32879,-0.30824 -0.45034,-0.47691 -0.8206,-1.13882 -1.22209,-2.42746 -1.72892,-3.62971 -1.2815,-3.50144 -2.01139,-7.07401 -2.65587,-10.64284 -0.17241,-1.37783 -0.54129,-2.76028 -0.47669,-4.14649 0.0559,-0.43094 0.22495,-0.94383 0.91116,-1.15121 2.10214,-0.63528 4.23154,-1.23294 6.34731,-1.84941 2.31577,-0.20011 4.52128,0.58066 6.46073,1.28805 1.26321,0.51458 2.41677,1.1341 3.52668,1.77521 0.57743,0.33354 1.04631,0.60365 1.44463,1.03559 0.18407,0.19961 0.30025,0.42185 0.45038,0.63278 0.48065,1.31786 0.87893,2.80036 0.31128,4.14023 -0.0936,0.22105 -0.26394,0.42578 -0.39592,0.63866 -0.22562,0.18355 -0.40826,0.39258 -0.67688,0.55064 -0.30064,0.17689 -0.64445,0.32773 -1.01123,0.44262 -5.32634,1.66848 -5.83029,1.91316 -10.16075,2.5673 -0.16185,0.0366 -0.6339,0.16516 -0.48556,0.10986 5.61482,-2.09299 4.22719,-2.32012 8.16834,-2.0244 1.69851,0.20342 1.74946,0.36145 2.71097,1.20663 1.09509,0.922 2.44605,1.70066 3.83853,2.43315 1.05278,0.51991 2.22261,0.93426 3.3797,1.34988 1.20106,0.24688 1.49679,0.45825 2.26127,1.09232 0.79883,0.68836 1.62202,1.35885 2.78786,1.79856 0.45565,0.12318 0.90585,0.24793 1.37206,0.35374 0,0 -5.73298,2.06631 -5.73298,2.06631 v 0 c -0.48541,-0.1301 -0.97294,-0.25911 -1.42185,-0.43739 -1.14034,-0.52448 -1.99973,-1.22304 -2.88187,-1.91558 -0.74573,-0.56852 -1.14171,-0.64346 -2.16716,-0.95283 -1.1447,-0.4538 -2.32256,-0.88108 -3.3582,-1.43676 -1.39717,-0.7753 -2.75079,-1.59148 -3.93914,-2.5002 -0.89886,-0.70757 -0.98251,-0.77049 -2.46194,-0.91029 -0.63653,-0.0423 -1.29153,-0.0412 -1.92428,-0.0959 -0.17116,-0.0148 -0.644,-0.007 -0.50548,-0.0729 4.57561,-2.18126 3.3515,-1.98344 5.81253,-2.31224 0.68797,-0.0966 1.24632,-0.16791 1.93574,-0.30094 0.40066,-0.0773 1.55808,-0.38439 1.18857,-0.25868 -1.49085,0.50719 -3.04255,0.93744 -4.56335,1.4068 -0.3451,0.1065 0.71657,-0.1831 1.03626,-0.31824 0.2779,-0.11748 0.49157,-0.28768 0.73735,-0.43152 0.16065,-0.18371 0.36609,-0.35409 0.48195,-0.55113 0.7227,-1.2291 0.2929,-2.67188 -0.18486,-3.89521 -0.13254,-0.18437 -0.23684,-0.37819 -0.39762,-0.55312 -0.98718,-1.07403 -3.15917,-1.99788 -4.70614,-2.70018 -1.94331,-0.65175 -4.19619,-1.35756 -6.42838,-0.89808 1.8284,-0.55231 3.66625,-1.09199 5.48522,-1.65692 0.12017,-0.0373 -0.26182,0.0386 -0.38429,0.0727 -0.48169,0.13423 -0.71813,0.35535 -0.77419,0.6889 -0.33165,1.3733 0.082,2.79702 0.0639,4.17559 0.39917,3.56744 1.04158,7.13469 2.55351,10.58902 0.39789,0.80101 0.88023,1.85566 1.41421,2.64593 0.17228,0.25498 0.37098,0.50415 0.60694,0.7373 0.0918,0.0907 0.51064,0.16837 0.36596,0.22401 -6.66103,2.56153 -7.01244,2.91363 -5.55678,1.67694 0.0645,-2.63998 -0.71111,-5.25923 -1.05649,-7.88263 -0.43144,-2.54756 -0.78466,-5.10435 -1.39965,-7.63677 0,0 6.12933,-1.62508 6.12933,-1.62508 z"
       inkscape:connector-curvature="0"
       id="path4422"
       inkscape:export-filename="C:\Users\Otavio\Documents\Blog\data_science_and_law\assets\img\js-1.png"
       inkscape:export-xdpi="96"
       inkscape:export-ydpi="96" />
    <path
       style="fill:#008000;fill-opacity:1;stroke-width:0.37546352"
       id="path4424"
       d="m 241.72911,209.05148 c -0.65914,2.15801 -0.80106,4.36183 -0.90932,6.55395 -0.0828,2.1458 0.0277,4.29786 0.53466,6.42064 0.45185,1.46079 0.96113,2.95335 2.16849,4.24265 0.71762,0.73737 1.46528,0.90191 2.74371,1.00716 1.06155,0.0511 2.12368,0.12061 3.13222,-0.127 -10.2569,2.92996 -5.79216,2.12725 -4.32149,0.93234 0.60822,-0.49418 1.06404,-1.06348 1.52318,-1.6162 1.0155,-1.04697 1.34583,-2.20927 1.53358,-3.41427 0.29599,-1.27843 -0.079,-2.49267 -0.53797,-3.72948 -0.4833,-1.30163 -1.09798,-2.58085 -1.61039,-3.87735 -0.2898,-0.71878 -0.41474,-1.45536 -0.46757,-2.19485 -0.0322,-0.71926 0.004,-1.43884 0.008,-2.15829 -0.004,-0.6436 0.001,-1.28718 -0.002,-1.93078 0,0 6.05936,-1.60608 6.05936,-1.60608 v 0 c -0.006,0.64524 -0.003,1.29048 -0.0132,1.93571 -0.002,0.71112 0.012,1.42205 0.0226,2.1331 0.0267,0.71787 0.1026,1.4356 0.34334,2.13911 0.44853,1.30723 0.98972,2.60232 1.52005,3.89662 0.19521,0.47162 0.43265,0.93664 0.59258,1.41366 0.26955,0.80398 0.13155,1.62396 0.0609,2.43554 -0.16494,1.24169 -0.34762,2.48228 -1.42362,3.56016 -2.52015,3.12154 -2.14134,2.47907 -8.80193,4.37533 -1.08039,0.1188 -2.18208,0.0627 -3.26294,-0.0371 -1.40917,-0.19407 -2.24023,-0.52983 -2.97826,-1.346 -1.14788,-1.37115 -1.58031,-2.92292 -2.07327,-4.43237 -0.19518,-0.78082 -0.34803,-1.2884 -0.4419,-2.07733 -0.17577,-1.47723 -0.0789,-2.96823 -0.0143,-4.44614 0.11839,-2.16261 0.15508,-4.32975 0.50793,-6.48375 0,0 6.10816,-1.569 6.10816,-1.569 z"
       inkscape:connector-curvature="0"
       inkscape:export-filename="C:\Users\Otavio\Documents\Blog\data_science_and_law\assets\img\js-1.png"
       inkscape:export-xdpi="96"
       inkscape:export-ydpi="96" />
    <path
       style="fill:#008000;fill-opacity:1;stroke-width:0.37546352"
       id="path4426"
       d="m 260.97376,210.1733 c -0.18535,2.93543 -0.0446,5.88009 0.0492,8.81716 0.23626,2.2791 0.35223,4.56985 0.72727,6.84223 0.23606,0.49322 0.0354,1.86709 0.80658,2.15409 0.0903,-0.002 0.18193,0.004 0.27093,-0.006 0.52814,-0.0593 1.02191,-0.20672 1.55588,-0.26836 0.83667,-0.0966 1.21089,-0.10688 2.09524,-0.16226 1.86664,-0.10333 3.74016,-0.14112 5.61183,-0.18664 0,0 -5.42275,2.14361 -5.42275,2.14361 v 0 c -1.87336,0.0375 -3.74865,0.0824 -5.61077,0.22826 -1.21096,0.11346 -1.06064,0.0851 -2.15533,0.23571 -0.79189,0.10896 -1.52858,0.2857 -2.24012,-0.058 -0.85639,-0.6894 -0.62084,-1.65152 -0.81595,-2.47726 -0.24338,-2.31936 -0.22144,-4.64876 -0.35526,-6.97119 -0.0777,-2.89645 -0.22909,-5.79135 -0.59809,-8.67944 0,0 6.08132,-1.61235 6.08132,-1.61235 z"
       inkscape:connector-curvature="0"
       inkscape:export-filename="C:\Users\Otavio\Documents\Blog\data_science_and_law\assets\img\js-1.png"
       inkscape:export-xdpi="96"
       inkscape:export-ydpi="96" />
    <path
       style="fill:#008000;fill-opacity:1;stroke-width:0.37546352"
       id="path4428"
       d="m 264.17339,218.64873 c 2.06743,-0.13929 4.13702,-0.27554 6.21177,-0.37709 1.46832,-0.0999 3.00288,0.001 4.40557,-0.33721 0,0 -5.51257,2.29687 -5.51257,2.29687 v 0 c -1.43422,0.1722 -2.89269,0.14668 -4.3439,0.21461 -2.12586,0.10062 -4.24634,0.24236 -6.34769,0.47628 0,0 5.58682,-2.27346 5.58682,-2.27346 z"
       inkscape:connector-curvature="0"
       inkscape:export-filename="C:\Users\Otavio\Documents\Blog\data_science_and_law\assets\img\js-1.png"
       inkscape:export-xdpi="96"
       inkscape:export-ydpi="96" />
    <path
       style="fill:#008000;fill-opacity:1;stroke-width:0.37546352"
       id="path4430"
       d="m 261.88651,208.92108 c 1.80588,-0.18005 3.6248,-0.28693 5.44798,-0.36904 1.59862,-0.0712 3.20003,-0.10945 4.80218,-0.12424 0.86762,6e-4 1.73518,0.005 2.60282,0.005 0,0 -5.57309,2.18541 -5.57309,2.18541 v 0 c -0.87335,-0.001 -1.74659,2.4e-4 -2.61988,0.008 -1.55524,0.007 -3.11079,0.03 -4.66263,0.10027 -1.87394,0.0958 -3.74521,0.22342 -5.58348,0.48433 0,0 5.5861,-2.28939 5.5861,-2.28939 z"
       inkscape:connector-curvature="0"
       inkscape:export-filename="C:\Users\Otavio\Documents\Blog\data_science_and_law\assets\img\js-1.png"
       inkscape:export-xdpi="96"
       inkscape:export-ydpi="96" />
    <path
       style="fill:#ff9955;fill-opacity:1;stroke-width:1.13854647"
       id="path4346-6"
       d="m 171.16506,301.94603 c 0.58923,14.12154 0.56866,28.27224 0.84664,42.40887 0.20905,9.21932 0.5217,18.43378 0.80364,27.64961 0,0 -12.61374,6.78532 -12.61374,6.78532 v 0 c 0.18677,-9.39261 0.31262,-18.78824 0.24004,-28.18442 -0.1905,-13.85489 -0.30563,-27.83606 -2.17329,-41.51687 0,0 12.89671,-7.14251 12.89671,-7.14251 z"
       inkscape:connector-curvature="0"
       inkscape:export-filename="C:\Users\Otavio\Documents\Blog\data_science_and_law\assets\img\js-1.png"
       inkscape:export-xdpi="96"
       inkscape:export-ydpi="96" />
    <path
       style="fill:#ff9955;fill-opacity:1"
       id="path4484"
       d="m 385.69485,244.52234 c 4.5332,9.95375 6.2013,20.83863 7.90064,31.54776 1.6081,13.33139 2.42038,26.82083 1.08092,40.20613 -0.62226,3.15291 -0.69407,7.09855 -3.07115,9.59664 -0.54646,0.57428 -1.1545,1.12702 -1.8688,1.47079 -4.74931,2.28564 -9.64243,4.25956 -14.46365,6.38934 -2.23079,0.49845 -4.44441,1.08122 -6.69239,1.49537 -7.00134,1.2899 -13.71021,2.05809 -20.82244,2.68881 -13.1033,1.16202 -26.22991,1.56833 -39.37336,1.91405 -15.38996,0.3901 -30.76997,-0.17676 -46.14344,-0.7911 -7.40055,-0.3648 -14.79336,0.48732 -22.16528,1.03755 -8.56181,0.65056 -17.138,0.8598 -25.71944,0.65626 -5.76877,-0.16577 -11.4781,-1.01529 -17.20093,-1.68224 -2.80089,-0.32332 -5.61617,-0.46881 -8.4325,-0.56385 -1.09683,-0.0351 -2.19416,-0.0469 -3.29145,-0.0552 0,0 8.97846,-5.50367 8.97846,-5.50367 v 0 c 1.15537,-0.0116 2.31073,-0.0254 3.46617,-0.0286 3.00234,0.005 6.00423,0.0983 8.99907,0.31854 6.05607,0.432 12.1066,0.97156 18.1845,0.9765 8.53318,0.0369 17.07041,-0.0705 25.58469,-0.69861 7.44505,-0.51119 14.89384,-0.94229 22.35755,-1.05281 16.83715,-0.63466 33.66458,-1.53449 50.51048,-1.9419 12.74199,-0.38353 25.49115,-0.67624 38.22394,-1.31331 5.23863,-0.26211 12.99287,-0.68733 18.40075,-1.35901 1.84604,-0.22928 3.66784,-0.6235 5.50176,-0.93525 -2.31228,1.25968 -4.63068,2.5082 -6.93685,3.77904 -0.74397,0.40997 1.56515,-0.69391 2.25008,-1.19634 2.60168,-1.90846 2.05964,-5.72934 2.25666,-8.50186 -0.3739,-13.01878 -2.64817,-25.8875 -3.70877,-38.85532 -0.29392,-3.00026 -0.56312,-6.00305 -0.88176,-9.00078 -0.8135,-7.65333 -1.85467,-15.29773 -2.37958,-22.97997 -0.0335,-0.49047 -0.007,-0.98319 -0.0109,-1.47479 0,0 9.46704,-4.14214 9.46704,-4.14214 z"
       inkscape:connector-curvature="0"
       inkscape:export-filename="C:\Users\Otavio\Documents\Blog\data_science_and_law\assets\img\js-1.png"
       inkscape:export-xdpi="96"
       inkscape:export-ydpi="96" />
    <path
       style="fill:#ff9955;fill-opacity:1"
       id="path4492"
       d="m 185.82856,336.30283 c 3.37015,-2.49076 7.14138,-4.40246 10.85281,-6.32788 3.8409,-2.13309 7.8637,-3.92969 11.68295,-6.10003 1.46787,-0.86551 2.92198,-1.79565 4.09156,-3.04804 2.19285,-2.98685 6.53911,-2.62471 10.12696,-3.74079 0.15617,-0.0486 -0.28892,0.15681 -0.41719,0.25828 -0.59474,0.47053 -1.15273,0.98621 -1.7459,1.45871 -3.09801,2.0934 -6.3899,3.85729 -9.72298,5.53932 -3.00454,1.52671 -6.05184,2.97535 -9.00227,4.60586 -1.39129,0.91842 -2.9477,1.67429 -4.14828,2.85047 -0.0295,0.14416 -0.14417,0.29621 -0.0886,0.43248 0.428,1.04979 2.92407,2.50318 3.73631,3.06388 1.48148,1.02265 2.81817,1.90312 4.3191,2.90234 1.92612,1.35047 3.97584,2.51786 5.89526,3.87804 1.19509,0.84689 2.32021,1.77812 3.52897,2.6075 0.87083,0.50517 1.85223,1.02145 2.89053,1.0452 0.17146,0.004 0.66537,-0.14428 0.50931,-0.0731 -2.96944,1.35365 -5.97825,2.61922 -8.96737,3.92883 0.12682,-0.13478 0.30648,-0.2347 0.38045,-0.40433 0.43717,-1.00256 0.1709,-4.30804 0.15067,-5.5294 -0.17885,-2.79076 -0.28186,-5.58138 -0.2979,-8.37984 0.0956,-2.34459 0.0105,-4.70157 0.20754,-7.04056 0.0339,-0.32086 0.0551,-0.64331 0.10173,-0.96257 0.13523,-0.92566 0.75568,-3.24848 0.3414,-2.43781 -3.09736,2.48623 -0.83765,0.50512 8.25831,-3.55031 0.17596,-0.0785 -0.32411,0.20937 -0.47559,0.3284 -0.35527,0.27916 -0.75021,0.67605 -1.07186,0.98538 -0.85857,0.85425 -1.83104,1.58619 -2.93185,2.10125 -10.47403,4.90069 -6.8533,3.78616 -11.51154,5.15305 -1.70824,0.60268 -3.49229,0.86357 -5.2205,1.38434 -3.87827,1.84134 4.05888,-1.92987 8.22824,-3.78685 0.19627,-0.0874 -0.36073,0.23545 -0.52506,0.37387 -0.52232,0.43994 -0.96738,0.97276 -1.38414,1.50915 -0.48038,0.89775 -1.0503,1.38473 0.22011,1.55156 0.70128,-0.0129 1.42252,0.14985 2.10972,-0.0806 0.35511,-0.11906 1.35435,-0.64003 1.01175,-0.48869 -8.81583,3.89435 -11.07197,5.66407 -7.37559,2.96676 1.8576,-1.49015 3.36351,-3.33812 4.95184,-5.09416 2.83752,-2.78126 1.42531,-1.50202 10.13609,-4.25803 0.41778,-0.13218 0.75495,2.37312 0.78213,2.64157 0.0596,1.50377 0.14651,3.01393 0.025,4.51626 -0.0234,0.13908 -0.0468,0.27817 -0.0702,0.41725 0,0 -9.53937,3.93855 -9.53937,3.93855 v 0 c -0.0204,-0.11956 -0.0409,-0.23913 -0.0613,-0.3587 -0.10428,-1.47705 0.0355,-2.95616 -0.0179,-4.43521 -0.003,-0.0925 -0.13835,-1.70988 -0.0945,-1.72985 9.01998,-4.10716 12.49234,-4.60823 8.83267,-4.04769 -1.47663,1.72409 -2.71666,3.66573 -4.47303,5.14087 -4.14837,3.53541 -1.48864,1.44693 -12.06005,6.1861 -0.97951,0.43912 -2.25517,0.0957 -3.20414,-0.22784 -1.20439,-0.72946 -1.73638,-1.84714 -1.08044,-3.18638 2.38107,-4.39589 7.86294,-5.78761 12.38463,-7.29586 1.77757,-0.5255 3.61078,-0.85633 5.35128,-1.51222 3.88698,-1.46855 1.55008,-0.61448 -7.66363,3.70787 -0.30213,0.14174 0.59506,-0.3025 0.89614,-0.44647 0.80443,-0.38466 1.58939,-0.75285 2.23595,-1.39111 3.16646,-3.10811 7.99803,-7.73875 12.36623,-5.92508 1.41025,1.42227 0.5824,2.5674 0.39565,4.32394 -0.19729,2.26487 0.0845,4.54243 0.0843,6.81156 0.0299,2.81499 -0.0355,5.63454 0.0517,8.44462 0.15113,2.35008 0.37184,4.81516 -0.47056,7.06334 -8.16022,3.751 -8.10631,6.13285 -13.91653,3.25158 -3.46625,-1.92364 -6.84988,-4.0094 -10.19222,-6.13815 -2.53675,-1.8001 -6.62601,-4.21239 -7.48079,-7.44389 -0.0803,-0.30347 -0.0424,-0.62638 -0.0636,-0.93957 0.0798,-0.2341 0.11157,-0.49052 0.23931,-0.70228 0.21268,-0.35258 0.75385,-0.65371 1.05715,-0.88843 0.76341,-0.59081 1.5386,-1.14288 2.34702,-1.6759 2.73649,-1.69739 5.65928,-3.07245 8.52245,-4.53889 3.43755,-1.71609 6.83233,-3.4836 10.11472,-5.48602 1.41455,-0.88328 1.04914,-0.57949 2.1883,-1.5409 0.21201,-0.17893 0.36338,-0.45597 0.6242,-0.55048 3.25974,-1.18104 6.55124,-2.2815 9.87889,-3.25492 0.11814,-0.0346 0.0348,0.25578 -0.0134,0.36903 -0.0684,0.16068 -0.21351,0.27641 -0.32027,0.41462 -0.7835,1.4326 -2.16893,2.40588 -3.50076,3.30051 -3.40936,2.35145 -7.33864,3.84287 -10.88879,5.96452 -4.13051,2.09402 -8.19213,4.30915 -12.24366,6.54987 0,0 -9.86767,3.05209 -9.86767,3.05209 z"
       inkscape:connector-curvature="0"
       inkscape:export-filename="C:\Users\Otavio\Documents\Blog\data_science_and_law\assets\img\js-1.png"
       inkscape:export-xdpi="96"
       inkscape:export-ydpi="96" />
    <path
       style="fill:#ff9955;fill-opacity:1"
       id="path4494"
       d="m 159.06435,366.44056 c 3.80048,1.66221 6.81354,5.32965 9.27913,8.56431 0.89247,0.90323 2.68432,4.55948 4.23664,4.48769 0.17312,-0.008 0.32009,-0.13296 0.48014,-0.19943 2.9877,-2.4866 0.44864,-0.30223 -8.30442,3.66325 -0.19062,0.0864 0.36376,-0.20827 0.53473,-0.32895 0.5012,-0.35379 0.95944,-0.76406 1.46498,-1.11504 0.87759,-0.71798 1.78436,-1.36013 2.29697,-2.39268 0.41229,-0.98137 0.82217,-1.96194 1.23829,-2.94143 0.51452,-0.94741 0.84023,-1.92678 1.08315,-2.9724 0.28234,-1.1714 0.73775,-2.29177 1.58621,-3.16107 0.72951,-0.62871 1.39153,-1.29562 1.9462,-2.08691 0.39117,-0.47621 0.94827,-2.30183 1.05205,-0.5442 -0.38456,0.4822 -0.14316,0.28023 -0.74738,0.57704 2.92992,-1.36034 5.85387,-2.73361 8.78976,-4.08103 0.1948,-0.0894 -0.37633,0.2053 -0.56531,0.30644 -0.80553,0.43107 -0.32451,0.14815 -1.09984,0.63387 -0.97262,0.48393 -1.84187,1.05019 -2.5569,1.8739 -0.63025,0.96188 -1.20667,1.93965 -1.97987,2.79643 -0.72512,0.93895 -1.76754,1.45026 -2.80077,1.97034 -1.00084,0.49931 -1.69123,1.26708 -2.4123,2.08808 -0.3732,0.3866 -0.84302,0.64572 -1.27831,0.95296 0,0 -9.95726,2.97694 -9.95726,2.97694 v 0 c 0.46199,-0.24093 0.82837,-0.58669 1.32646,-0.75457 0.90854,-0.6572 1.2634,-1.82352 2.3759,-2.25091 0.85937,-0.72302 1.98849,-0.92343 2.82122,-1.6797 0.7288,-0.87482 1.55706,-1.65148 2.09649,-2.67355 0.47981,-1.0018 1.29575,-1.89287 2.34164,-2.30524 0.72483,-0.42868 0.37018,-0.19311 1.06206,-0.70955 3.30636,-1.97879 6.96398,-3.30053 10.45091,-4.9403 0.13947,-0.0656 0.2754,-0.15261 0.42783,-0.17533 0.13873,-0.0207 0.2786,0.0328 0.41789,0.0493 0.98645,1.05754 0.84261,1.32761 0.0159,2.39916 -0.37261,0.86187 -1.05067,1.84942 -1.8479,2.35442 -0.11756,0.12021 -0.23511,0.24042 -0.35266,0.36064 -0.13008,0.0887 -0.27594,0.15777 -0.39024,0.26601 -0.53384,0.50554 -0.73044,1.36301 -0.96071,2.02663 -0.35138,1.03157 -0.41113,2.17342 -1.0987,3.07184 -0.33737,1.00485 -0.82244,1.94865 -1.20752,2.93555 -0.38366,1.29122 -1.03942,2.12139 -2.11767,2.91743 -0.93939,0.85603 0.10726,-0.0453 -0.94119,0.69674 -0.35619,0.25208 -0.5718,0.69255 -0.96204,0.88781 -9.43882,4.72267 -6.35989,4.20732 -10.62497,4.82726 -2.729,-0.43804 -4.33516,-2.79141 -6.08146,-4.72272 -2.59328,-3.01018 -5.12676,-6.13286 -8.15694,-8.71718 0,0 9.11982,-4.93182 9.11982,-4.93182 z"
       inkscape:connector-curvature="0"
       inkscape:export-filename="C:\Users\Otavio\Documents\Blog\data_science_and_law\assets\img\js-1.png"
       inkscape:export-xdpi="96"
       inkscape:export-ydpi="96" />
    <path
       style="fill:#ff9955;fill-opacity:1"
       id="path4496"
       d="m 171.15206,372.01883 c 0.96874,1.12678 2.08009,1.94394 3.49744,2.38331 0.22784,0.0856 0.45569,0.17123 0.68353,0.25684 0,0 -9.15961,5.16964 -9.15961,5.16964 v 0 c -0.22528,-0.0847 -0.45057,-0.16939 -0.67586,-0.25408 -1.45109,-0.61284 -2.72798,-1.48961 -3.5761,-2.85249 0,0 9.2306,-4.70322 9.2306,-4.70322 z"
       inkscape:connector-curvature="0"
       inkscape:export-filename="C:\Users\Otavio\Documents\Blog\data_science_and_law\assets\img\js-1.png"
       inkscape:export-xdpi="96"
       inkscape:export-ydpi="96" />
  </g>
</svg>
